<svg width="26" height="26" viewBox="0 0 26 26" fill="none" xmlns="http://www.w3.org/2000/svg">
<path d="M22.3815 7.56199C21.4362 5.92363 20.0757 4.56347 18.4371 3.61866C16.776 2.65088 14.9636 2.16699 12.9998 2.16699C10.0543 2.16699 9.22334 2.65124 7.5615 3.61866C5.90039 4.58644 4.58595 5.90088 3.61817 7.56199C2.1665 10.0537 2.1665 11.0362 2.1665 13.0003C2.1665 14.9644 2.64967 16.7779 3.61817 18.4387C4.5622 20.078 5.92302 21.4384 7.56259 22.382C9.2237 23.3498 11.0361 23.8337 12.9998 23.8337C15.9454 23.8337 16.7763 23.3494 18.4382 22.382C20.0768 21.4372 21.4373 20.077 22.3826 18.4387C23.3504 16.7775 23.8339 14.9648 23.8332 13.0003C23.8321 10.0537 23.35 9.22274 22.3815 7.56199ZM12.9998 3.96533C15.1658 3.96533 17.0869 4.6583 18.7632 6.04424C17.7665 7.31535 16.2859 8.36258 14.3215 9.18591C13.2367 7.22146 12.0591 5.58202 10.7888 4.26758C11.5089 4.06825 12.2526 3.96659 12.9998 3.96533ZM5.969 7.36699C6.76078 6.36064 7.7632 5.53977 8.90592 4.96199C10.2189 6.26199 11.425 7.88699 12.5243 9.83699C10.3576 10.487 8.06778 10.812 5.65484 10.812C5.03373 10.812 4.56428 10.7975 4.2465 10.7687C4.57855 9.52758 5.16514 8.36915 5.969 7.36699ZM3.96484 13.0003C3.96484 12.9425 3.96845 12.8703 3.97567 12.7837C3.98289 12.697 3.9865 12.6248 3.9865 12.567C4.26167 12.5814 4.68092 12.5887 5.24425 12.5887C8.13314 12.5887 10.8194 12.1914 13.3032 11.397C13.5061 11.8014 13.7156 12.2564 13.9315 12.762C12.5015 13.0798 11.035 13.8525 9.53209 15.0803C7.27767 16.922 6.93317 17.6012 6.23984 18.9587C4.72317 17.2398 3.96484 15.2537 3.96484 13.0003ZM12.9998 22.0353C10.9487 22.0353 9.1067 21.4001 7.47375 20.1297C8.12448 18.8435 9.12511 17.6153 10.4757 16.4453C11.8262 15.2753 13.1659 14.5459 14.4948 14.257C15.3337 16.5741 15.9008 18.9808 16.1848 21.4287C15.1694 21.8246 14.0897 22.0302 12.9998 22.0353ZM20.6698 17.7453C19.9608 18.8878 19.006 19.8578 17.8748 20.5847C17.6148 18.3314 17.1169 16.1355 16.3809 13.997C17.3906 13.9248 18.2934 13.8887 19.0893 13.8887C19.9552 13.8887 20.9154 13.9248 21.9698 13.997C21.8283 15.3293 21.3836 16.6115 20.6698 17.7453ZM19.3265 12.3287C18.0698 12.3287 16.9071 12.3792 15.8382 12.4803C15.6117 11.8875 15.366 11.3022 15.1015 10.7253C17.3397 9.74382 18.9282 8.55216 19.8671 7.15032C21.1671 8.68144 21.8749 10.4292 21.9904 12.3937C21.1108 12.3503 20.2228 12.3287 19.3265 12.3287Z" fill="white"/>
</svg>
