<svg width="26" height="26" viewBox="0 0 26 26" fill="none" xmlns="http://www.w3.org/2000/svg">
<path d="M8.45309 6.20898C9.09117 6.20898 9.66534 6.26423 10.1918 6.3769C10.714 6.48885 11.1629 6.67229 11.5384 6.92723C11.9104 7.18146 12.2007 7.52054 12.4094 7.94448C12.612 8.36373 12.7128 8.88807 12.7128 9.50773C12.7128 10.1794 12.5607 10.7395 12.2567 11.188C11.9512 11.6372 11.4976 12.0037 10.896 12.2876C11.715 12.5259 12.3253 12.9397 12.7268 13.5291C13.132 14.1238 13.3303 14.8356 13.3303 15.6697C13.3303 16.3465 13.201 16.9289 12.9424 17.4172C12.6933 17.8987 12.3312 18.3128 11.8873 18.624C11.4278 18.9443 10.9144 19.1792 10.3717 19.3173C9.80269 19.4665 9.2168 19.5415 8.62859 19.5405H2.1665V6.20898H8.45309ZM8.07284 11.5953C8.59284 11.5953 9.02328 11.4707 9.36417 11.2216C9.70217 10.9746 9.86575 10.5672 9.86575 10.0093C9.86575 9.69876 9.81123 9.44346 9.70217 9.2434C9.59726 9.05012 9.4409 8.88964 9.25042 8.77973C9.05137 8.66219 8.83196 8.58318 8.60367 8.54682C8.35472 8.50033 8.10183 8.47819 7.84859 8.48073H5.10234V11.5953H8.07284ZM8.23642 17.2709C8.52567 17.2709 8.80084 17.246 9.05975 17.1875C9.32084 17.1312 9.55267 17.0402 9.74984 16.9047C9.947 16.7747 10.1095 16.5982 10.2265 16.3728C10.3446 16.1497 10.402 15.8582 10.402 15.5083C10.4013 14.8222 10.2088 14.3318 9.82459 14.0372C9.44 13.7447 8.92434 13.5995 8.29275 13.5995H5.10234V17.272L8.23642 17.2709ZM17.5152 17.2265C17.9131 17.615 18.4851 17.8093 19.2312 17.8093C19.7656 17.8093 20.2271 17.6746 20.6157 17.4052C20.9992 17.1355 21.2332 16.8473 21.3231 16.5494H23.6577C23.2828 17.7107 22.7141 18.5406 21.9363 19.04C21.1682 19.5416 20.2333 19.7907 19.1413 19.7907C18.3815 19.7907 17.6954 19.669 17.0829 19.4257C16.4938 19.1975 15.9618 18.8433 15.524 18.3878C15.0934 17.9221 14.7601 17.3752 14.5436 16.7791C14.3057 16.1196 14.1883 15.4228 14.1969 14.7218C14.1976 13.9996 14.3164 13.3265 14.5533 12.7025C14.7782 12.1007 15.1223 11.5505 15.5652 11.0851C16.0028 10.6301 16.5243 10.2711 17.1295 10.0082C17.766 9.73938 18.4515 9.60583 19.1423 9.61607C19.9584 9.61607 20.6731 9.77496 21.2863 10.0927C21.8801 10.3979 22.3955 10.8361 22.7921 11.3732C23.1843 11.9077 23.467 12.5183 23.6403 13.2052C23.8137 13.8891 23.8754 14.6052 23.8256 15.3534H16.8587C16.8598 16.1161 17.1165 16.8387 17.5152 17.2265ZM20.5615 12.1554C20.2463 11.8066 19.7133 11.6181 19.0611 11.6181C18.6386 11.6173 18.2869 11.6892 18.0059 11.8337C17.7489 11.9645 17.5205 12.1453 17.3343 12.3656C17.1719 12.5666 17.0511 12.7978 16.9789 13.0459C16.9178 13.2533 16.8775 13.4664 16.8587 13.6818H21.1725C21.1097 13.0058 20.8778 12.5064 20.5615 12.1554ZM16.317 7.10382H21.7218V8.42007H16.317V7.10382Z" fill="white"/>
</svg>
